<?xml version="1.0" standalone="no"?>
<!DOCTYPE svg PUBLIC "-//W3C//DTD SVG 20010904//EN"
 "http://www.w3.org/TR/2001/REC-SVG-20010904/DTD/svg10.dtd">
<svg version="1.0" xmlns="http://www.w3.org/2000/svg"
 width="60.000000pt" height="60.000000pt" viewBox="0 0 291.000000 173.000000"
 preserveAspectRatio="xMidYMid meet">
<metadata>
Created by potrace 1.15, written by Peter Selinger 2001-2017
</metadata>
<g transform="translate(0.000000,173.000000) scale(0.100000,-0.100000)"
fill="#000000" stroke="none">
<path d="M1705 1689 c-360 -14 -368 -18 -379 -196 l-7 -109 -280 4 c-327 5
-588 -10 -634 -37 -16 -9 -38 -32 -50 -51 -19 -34 -20 -50 -19 -430 0 -353 2
-398 17 -427 29 -54 59 -67 169 -71 54 -3 98 -8 98 -13 0 -5 -23 -45 -50 -89
-28 -44 -50 -84 -50 -90 0 -22 37 -6 189 85 l159 95 204 1 c251 0 416 12 447
30 41 25 61 80 61 168 0 44 3 86 6 95 5 14 35 16 228 16 l221 0 165 -99 c95
-57 169 -95 174 -90 5 5 -13 44 -44 94 -29 49 -49 90 -44 95 5 4 50 10 101 12
74 2 97 7 120 24 57 42 57 44 58 469 0 434 -2 447 -65 480 -59 31 -441 47
-795 34z m661 -38 c55 -5 110 -15 122 -22 44 -28 47 -52 47 -439 -1 -201 -4
-382 -8 -403 -10 -48 -53 -77 -117 -77 -78 0 -180 -13 -180 -22 0 -5 18 -37
39 -71 22 -34 38 -63 36 -66 -3 -2 -62 30 -132 72 l-128 75 -300 4 c-255 4
-305 7 -332 22 -58 30 -58 26 -58 446 0 212 4 397 8 412 12 44 47 59 154 68
137 10 727 11 849 1z m-1093 -307 l45 -6 4 -282 c3 -257 5 -284 22 -313 26
-42 80 -63 164 -63 37 0 61 -4 54 -8 -8 -5 -15 -45 -19 -106 -9 -136 -19 -148
-140 -158 -48 -3 -190 -7 -315 -7 l-226 -1 -126 -75 c-69 -41 -128 -75 -131
-75 -3 0 13 30 36 66 24 37 38 69 33 74 -5 5 -65 13 -133 18 -162 12 -157 5
-166 196 -11 211 -2 656 13 683 19 35 48 45 151 53 122 9 673 12 734 4z"/>
<path d="M1837 1482 c-7 -10 -217 -570 -225 -595 -4 -16 3 -18 93 -15 l98 3
14 48 14 48 112 -3 111 -3 14 -47 13 -48 100 0 c54 0 99 2 99 3 0 2 -51 141
-114 308 l-114 304 -105 3 c-58 1 -108 -1 -110 -6z m167 -349 c7 -22 5 -23
-62 -23 l-70 0 29 93 c16 50 32 99 35 107 4 9 17 -18 34 -70 15 -47 30 -95 34
-107z"/>
<path d="M784 1166 c-128 -60 -184 -219 -135 -387 14 -47 74 -115 125 -141 48
-25 198 -37 259 -20 35 10 41 8 98 -30 33 -22 61 -39 63 -37 2 2 14 24 26 48
24 49 26 44 -34 85 -19 12 -19 14 5 62 32 66 39 199 14 275 -23 67 -85 130
-150 152 -76 26 -207 23 -271 -7z m190 -116 c56 -21 85 -116 66 -208 l-12 -52
-42 25 c-55 32 -69 31 -83 -5 -11 -29 -10 -31 20 -48 l32 -17 -34 -3 c-69 -7
-109 52 -110 161 -2 121 68 183 163 147z"/>
<path d="M785 1670 c-65 -26 -82 -141 -29 -194 49 -48 150 -39 185 17 15 24
19 44 16 81 -6 67 -47 106 -110 105 -23 0 -51 -4 -62 -9z"/>
<path d="M1020 1660 c-24 -24 -26 -63 -5 -84 9 -9 33 -20 53 -26 51 -14 66
-25 59 -44 -8 -20 -56 -21 -63 -1 -7 16 -74 22 -74 6 0 -6 10 -22 23 -37 19
-22 32 -26 72 -27 59 -1 92 15 106 50 16 44 -7 75 -74 97 -57 18 -70 38 -30
44 11 2 26 -4 33 -13 14 -17 56 -20 65 -5 3 5 -5 21 -19 35 -33 33 -115 36
-146 5z"/>
</g>
</svg>
