<?xml version="1.0" standalone="no"?>
<!DOCTYPE svg PUBLIC "-//W3C//DTD SVG 20010904//EN"
 "http://www.w3.org/TR/2001/REC-SVG-20010904/DTD/svg10.dtd">
<svg version="1.0" xmlns="http://www.w3.org/2000/svg"
 width="90.000000pt" height="90.000000pt" viewBox="0 0 960.000000 960.000000"
 preserveAspectRatio="xMidYMid meet">
<metadata>
Created by potrace 1.15, written by Peter Selinger 2001-2017
</metadata>
<g transform="translate(0.000000,960.000000) scale(0.100000,-0.100000)"
fill="#000000" stroke="none">
<path d="M5222 7345 c-712 -92 -1260 -571 -1510 -1320 -73 -218 -108 -421
-122 -700 -23 -487 52 -898 234 -1280 158 -332 382 -593 669 -779 373 -243
865 -331 1342 -240 l80 15 96 -93 c172 -168 312 -258 484 -312 306 -95 572
-78 824 55 153 80 210 125 628 490 l33 28 -26 60 -26 59 -106 -84 c-141 -112
-227 -168 -340 -222 -99 -47 -239 -82 -329 -82 -209 0 -453 89 -657 241 -47
35 -85 66 -85 69 0 3 36 30 81 60 101 68 280 238 363 345 256 327 407 715 461
1176 23 204 15 630 -15 808 -83 484 -268 877 -555 1179 -383 403 -952 600
-1524 527z m453 -234 c515 -107 909 -599 1063 -1331 43 -199 56 -344 56 -605
0 -353 -37 -603 -134 -896 -102 -312 -249 -560 -439 -743 -63 -61 -73 -67 -89
-55 -9 8 -72 62 -140 121 -473 411 -711 559 -1017 634 -203 49 -387 41 -588
-26 -48 -17 -90 -30 -91 -30 -6 0 -45 112 -70 202 -124 436 -138 971 -36 1435
154 708 565 1206 1068 1297 115 21 309 19 417 -3z m-815 -3036 c264 -96 476
-285 795 -704 47 -62 84 -115 82 -117 -2 -3 -37 -12 -78 -20 -108 -23 -365
-15 -474 15 -102 28 -245 96 -332 157 -101 71 -279 255 -349 359 -87 132 -169
294 -151 301 8 3 54 14 103 24 132 29 302 23 404 -15z"/>
<path d="M1365 5455 c-297 -56 -500 -272 -571 -609 -20 -96 -19 -321 2 -423
80 -388 366 -628 728 -610 317 15 559 227 648 567 29 113 32 386 5 495 -70
279 -244 487 -465 555 -132 41 -227 48 -347 25z m236 -91 c311 -91 481 -588
353 -1031 -53 -182 -155 -323 -286 -394 -61 -33 -66 -34 -178 -34 -107 0 -119
2 -175 29 -289 141 -420 644 -276 1064 65 188 193 327 339 367 66 18 158 18
223 -1z"/>
<path d="M2714 5460 c-151 -32 -258 -158 -284 -336 -19 -133 9 -236 90 -327
60 -67 126 -114 287 -203 177 -98 208 -120 275 -193 73 -79 92 -132 86 -250
-3 -72 -9 -95 -31 -133 -54 -93 -137 -133 -260 -126 -93 5 -149 33 -235 118
-75 74 -129 154 -197 290 -55 110 -53 107 -64 94 -6 -5 -2 -51 10 -114 11 -58
31 -174 44 -259 14 -85 26 -155 27 -157 2 -1 22 2 45 9 35 9 54 7 125 -13 135
-37 199 -49 268 -50 113 0 214 36 285 101 92 84 135 195 135 342 -1 108 -11
160 -48 235 -57 118 -155 198 -390 321 -132 70 -223 136 -260 191 -36 54 -55
133 -47 199 16 129 97 191 251 191 87 0 164 -41 248 -131 61 -66 134 -192 151
-261 4 -16 13 -28 19 -28 9 0 11 48 9 198 -3 108 -6 203 -8 210 -3 6 -18 12
-35 12 -17 0 -94 16 -171 35 -152 37 -260 49 -325 35z"/>
<path d="M8155 5430 c-33 -16 -66 -29 -72 -29 -16 -1 -16 -6 -3 -51 9 -30 1
-61 -64 -260 -41 -124 -131 -400 -201 -615 -70 -214 -138 -412 -152 -438 -32
-65 -84 -120 -133 -142 -77 -35 -53 -40 190 -40 127 0 229 3 227 8 -1 4 -31
22 -66 40 -70 35 -98 65 -110 119 -8 34 15 124 121 478 l14 45 207 3 c182 2
207 1 207 -13 0 -9 29 -118 65 -243 36 -125 65 -242 65 -262 0 -68 -48 -116
-144 -145 -22 -7 -41 -16 -43 -21 -2 -5 121 -9 292 -10 236 0 295 3 295 13 0
7 -8 13 -17 13 -31 1 -99 36 -127 66 -50 55 -30 -8 -395 1243 -43 146 -81 266
-87 267 -5 2 -36 -10 -69 -26z m49 -500 c43 -151 80 -283 82 -292 5 -17 -8
-18 -175 -18 -100 0 -181 3 -181 7 0 6 46 156 147 482 19 62 38 109 42 105 5
-5 43 -133 85 -284z"/>
</g>
</svg>
